<svg width="25" height="25" viewBox="0 0 25 25" fill="none" xmlns="http://www.w3.org/2000/svg">
<g clip-path="url(#clip0_24_218)">
<path d="M12.4961 -1.83602e-06C14.1398 -0.00352606 15.768 0.317761 17.2871 0.945399C18.8063 1.57304 20.1865 2.49466 21.3484 3.65731C22.5103 4.81997 23.4311 6.20074 24.0577 7.72031C24.6844 9.23988 25.0046 10.8683 25.0001 12.512C25.0013 14.1558 24.6778 15.7836 24.048 17.302C23.4183 18.8204 22.4948 20.1994 21.3305 21.3598C20.1663 22.5202 18.7842 23.4391 17.2638 24.0638C15.7433 24.6885 14.1145 25.0067 12.4707 25C10.8266 24.9988 9.19898 24.6727 7.68129 24.0406C6.1636 23.4085 4.78577 22.4827 3.62696 21.3164C2.46815 20.1501 1.5512 18.7664 0.928787 17.2447C0.30637 15.723 -0.0092442 14.0933 7.85943e-05 12.4493C0.00821421 9.14191 1.32885 5.97304 3.67188 3.63877C6.01491 1.3045 9.18871 -0.00425794 12.4961 -1.83602e-06ZM12.4427 22.5125C13.7567 22.522 15.0598 22.2724 16.2773 21.7779C17.4948 21.2834 18.6028 20.5537 19.5381 19.6306C20.4734 18.7075 21.2175 17.609 21.7279 16.3981C22.2383 15.1872 22.5049 13.8875 22.5126 12.5734C22.524 11.2595 22.2764 9.95611 21.7839 8.73789C21.2914 7.51967 20.5636 6.41045 19.6422 5.47364C18.7207 4.53683 17.6237 3.7908 16.4138 3.27818C15.2039 2.76556 13.9048 2.49641 12.5909 2.48611C11.2712 2.47254 9.96198 2.72026 8.73853 3.21498C7.51508 3.7097 6.40162 4.44166 5.46234 5.36865C4.52305 6.29565 3.77651 7.39937 3.26572 8.6162C2.75493 9.83303 2.49 11.1389 2.48619 12.4586C2.47916 13.7727 2.73118 15.0753 3.22785 16.2919C3.72453 17.5085 4.4561 18.6153 5.38077 19.549C6.30544 20.4827 7.40506 21.2251 8.61679 21.7336C9.82851 22.2421 11.1286 22.5068 12.4427 22.5125Z" fill="black"/>
<path d="M19.3281 5.71725C18.041 8.4931 16.7753 11.1127 15.6043 13.7671C15.4386 14.1816 15.1904 14.5582 14.8748 14.874C14.5593 15.1898 14.1829 15.4383 13.7684 15.6043C11.1087 16.7739 8.48777 18.037 5.67053 19.3428C5.9082 18.7981 6.07109 18.4082 6.246 18.0237C7.42363 15.4868 8.59993 12.95 9.79358 10.4131C9.89726 10.1762 10.0741 9.97869 10.2983 9.84965C13.1703 8.49444 16.0516 7.16326 18.9316 5.82807C19.0117 5.80404 19.0945 5.78935 19.3281 5.71725ZM12.5254 11.1154C12.1567 11.1136 11.8021 11.2567 11.5381 11.514C11.2741 11.7713 11.1218 12.1221 11.1141 12.4906C11.1169 12.848 11.2557 13.1908 11.5022 13.4495C11.7487 13.7081 12.0845 13.8632 12.4413 13.8832C12.8099 13.8941 13.168 13.7594 13.4381 13.5083C13.7082 13.2572 13.8686 12.9098 13.8846 12.5414C13.8904 12.1729 13.7511 11.8169 13.4969 11.5502C13.2426 11.2834 12.8937 11.1273 12.5254 11.1154Z" fill="black"/>
</g>
<defs>
<clipPath id="clip0_24_218">
<rect width="25" height="25" fill="white"/>
</clipPath>
</defs>
</svg>
