<svg width="18" height="15" viewBox="0 0 18 15" fill="none" xmlns="http://www.w3.org/2000/svg">
<g clip-path="url(#clip0_24_819)">
<path d="M3.66748 11.4307V11.093C3.66748 7.77832 3.66748 4.46365 3.66748 1.14898C3.65909 0.974539 3.67712 0.799829 3.72098 0.630781C3.85113 0.225963 4.31503 -0.0335361 4.78932 0.00319294C5.29873 0.0431159 5.69237 0.379267 5.75545 0.836784C5.7661 0.952506 5.76877 1.06882 5.76344 1.18491V11.4355L5.85446 11.4946L7.128 10.3265C7.28181 10.1725 7.47528 10.0642 7.68692 10.0135C8.13885 9.91765 8.5812 10.0718 8.82632 10.4127C8.95189 10.5751 9.01059 10.7793 8.9904 10.9836C8.97021 11.1879 8.87266 11.3767 8.71774 11.5114C7.61906 12.4903 6.50867 13.4586 5.38656 14.4162C5.19388 14.5775 4.95034 14.6655 4.69902 14.6647C4.44769 14.6638 4.20477 14.5741 4.01321 14.4114C2.89058 13.4532 1.78099 12.4842 0.68444 11.5042C0.285211 11.1473 0.337909 10.5684 0.732348 10.2426C0.934302 10.0743 1.18848 9.98138 1.45138 9.97977C1.71429 9.97817 1.96958 10.068 2.17357 10.2338C2.65264 10.6331 3.10058 11.0626 3.56209 11.4794L3.66748 11.4307Z" fill="black"/>
<path d="M12.3196 7.57098C13.7137 7.57098 15.1086 7.56619 16.5027 7.57098C17.1079 7.57098 17.5407 7.97021 17.583 8.52195C17.5945 8.66475 17.5766 8.80838 17.5304 8.944C17.4843 9.07962 17.4108 9.20435 17.3146 9.31051C17.2184 9.41666 17.1015 9.50198 16.971 9.56122C16.8406 9.62047 16.6994 9.65236 16.5562 9.65496C13.7009 9.66507 10.8456 9.66507 7.99033 9.65496C7.71561 9.65308 7.45269 9.54311 7.25843 9.34886C7.06418 9.1546 6.95421 8.89167 6.95233 8.61696C6.95233 8.01812 7.39308 7.57897 8.01987 7.57178C9.45071 7.56539 10.8855 7.57098 12.3196 7.57098Z" fill="black"/>
<path d="M10.9366 6.56173C9.96651 6.56173 8.99559 6.56891 8.02546 6.56173C7.4873 6.55614 7.06731 6.22478 6.9691 5.75768C6.91785 5.52841 6.94461 5.28858 7.04514 5.07625C7.14566 4.86391 7.3142 4.69121 7.52403 4.58554C7.70339 4.49822 7.90215 4.45836 8.10131 4.46976C9.9753 4.46976 11.8493 4.46976 13.7233 4.46976C14.4091 4.46976 14.8874 4.90652 14.8802 5.51335C14.8722 6.15212 14.4299 6.55773 13.7273 6.56173C12.797 6.56572 11.8668 6.56253 10.9366 6.56173Z" fill="black"/>
<path d="M9.5609 3.47569C9.05627 3.47569 8.55244 3.48368 8.04383 3.47569C7.40905 3.46292 6.95153 3.03335 6.94275 2.46005C6.93317 1.84604 7.36913 1.39651 8.02466 1.38772C9.04562 1.37335 10.0674 1.37335 11.0899 1.38772C11.7367 1.39651 12.175 1.83247 12.1719 2.42093C12.1719 3.03095 11.7231 3.46372 11.07 3.47569C10.5725 3.48288 10.0687 3.47569 9.5609 3.47569Z" fill="black"/>
</g>
<defs>
<clipPath id="clip0_24_819">
<rect width="17.1709" height="14.6653" fill="white" transform="translate(0.414551)"/>
</clipPath>
</defs>
</svg>
