<svg width="17" height="10" viewBox="0 0 17 10" fill="none" xmlns="http://www.w3.org/2000/svg">
<path d="M6.45455 8.40906H4.40909C3.9614 8.40906 3.5181 8.32088 3.10449 8.14956C2.69088 7.97824 2.31506 7.72713 1.9985 7.41056C1.35917 6.77124 1 5.90412 1 4.99997C1 4.09583 1.35917 3.22871 1.9985 2.58938C2.63783 1.95005 3.50494 1.59088 4.40909 1.59088H6.45455M10.5455 1.59088H12.5909C13.0386 1.59088 13.4819 1.67906 13.8955 1.85038C14.3091 2.02171 14.6849 2.27282 15.0015 2.58938C15.3181 2.90594 15.5692 3.28176 15.7405 3.69537C15.9118 4.10898 16 4.55228 16 4.99997C16 5.44766 15.9118 5.89096 15.7405 6.30457C15.5692 6.71818 15.3181 7.094 15.0015 7.41056C14.6849 7.72713 14.3091 7.97824 13.8955 8.14956C13.4819 8.32088 13.0386 8.40906 12.5909 8.40906H10.5455V1.59088Z" stroke="black" stroke-width="2" stroke-linecap="round" stroke-linejoin="round"/>
<path d="M5.09088 5H10.5454" stroke="black" stroke-width="2" stroke-linecap="round" stroke-linejoin="round"/>
</svg>
