<svg width="115" height="54" viewBox="0 0 115 54" fill="none" xmlns="http://www.w3.org/2000/svg">
<path d="M46.5685 22.0901C46.0516 21.4259 45.4343 20.8464 44.7389 20.3724C43.5759 19.4971 42.5225 19.0518 40.871 19.492C36.0743 20.7643 31.5143 17.5428 30.8298 12.6825C30.9685 11.9356 30.9685 11.1697 30.8298 10.4228C31.3387 6.66183 34.176 3.8678 38.0235 3.32324C41.3748 2.84994 45.0697 4.95946 46.5176 8.11229C46.9273 9.00291 46.6932 9.33626 45.7771 9.38461C44.861 9.43296 44.1968 9.42278 43.5683 8.44563C42.2655 6.42263 40.2348 5.62361 37.8428 6.11219C35.5679 6.57531 34.1327 7.99268 33.5526 10.2574C33.4972 10.4146 33.4273 10.5662 33.3439 10.7104C33.225 10.9793 33.1637 11.2701 33.1637 11.5641C33.1637 11.8581 33.225 12.1489 33.3439 12.4178C33.8528 14.0082 34.545 15.4434 36.0769 16.3493C38.848 17.9805 42.665 16.9804 43.9398 14.0388C44.4488 12.8403 45.1256 12.3237 46.314 12.2575C46.9425 12.2881 46.9196 12.7995 47.0214 13.2194C46.8732 14.2603 46.4693 15.2483 45.8458 16.0949C45.5608 16.5096 45.4412 16.8583 45.7084 17.3672C46.4718 18.7795 47.2352 20.179 48.5864 21.1206C49.0017 21.2096 49.3866 21.4052 49.7035 21.688C50.8231 22.8891 52.2787 23.5711 53.6833 24.3523C55.518 25.3701 56.0295 27.3346 55.004 28.9937C54.6904 29.552 54.2141 30.0014 53.6385 30.282C53.0629 30.5625 52.4154 30.6608 51.7825 30.5638C51.1423 30.5148 50.5326 30.2699 50.0364 29.8625C49.5402 29.455 49.1814 28.9047 49.0088 28.2863C48.5609 26.9249 48.2454 25.5152 47.6194 24.2149C47.3624 23.4464 46.7517 22.8764 46.5685 22.0901Z" fill="#00A79C"/>
<path d="M35.9191 10.6799C36.7613 8.64413 38.1609 8.04614 40.2755 8.83752C43.4563 10.0284 46.6066 10.1735 49.7416 8.65431C50.0862 8.51848 50.3886 8.29392 50.6183 8.00343C50.8481 7.71294 50.9968 7.36685 51.0496 7.00028C51.813 3.12477 54.1032 0.893113 57.8947 0.129716C60.9025 -0.460643 64.2385 1.00508 66.0223 3.69223C67.8519 6.45318 67.8825 10.092 66.1368 12.6774C65.7959 13.1863 65.5592 13.3339 65.1037 12.8123C64.381 11.9853 63.9179 11.2499 64.4217 10.0132C65.3556 7.69243 64.4726 5.24447 62.4293 3.74313C61.4796 3.05836 60.3391 2.68858 59.1682 2.68584C57.9974 2.68311 56.8552 3.04754 55.9022 3.72786C54.9292 4.419 54.2054 5.40591 53.8386 6.54165C53.4718 7.6774 53.4816 8.90124 53.8665 10.031C54.2414 11.1413 54.9511 12.1081 55.8981 12.7985C56.845 13.4888 57.9826 13.8688 59.1543 13.8861C59.4101 13.8963 59.6651 13.8521 59.9024 13.7563C61.3402 13.0922 62.1697 14.1355 63.0578 14.904C63.7321 15.4867 62.9128 15.5809 62.6583 15.7106C59.1619 17.5046 54.5841 16.2501 52.3626 12.8479C51.8995 12.1405 51.4237 11.6036 50.5814 11.4687C49.4479 11.1913 48.2643 11.1913 47.1308 11.4687C44.4463 12.1375 41.8548 13.1358 39.4154 14.4409C39.0147 14.3085 38.582 14.3085 38.1813 14.4409C37.0158 14.2347 36.3084 13.5171 35.9343 12.428C36.0568 11.8512 36.0516 11.2545 35.9191 10.6799Z" fill="#28A8E0"/>
<path d="M64.4166 22.3802C64.5512 21.161 65.0118 20.0007 65.75 19.0212C66.1826 18.4538 66.1597 18.0237 65.7831 17.4435C63.9459 14.6164 61.4012 12.6596 58.3476 11.3542C57.0626 10.8045 56.2458 9.92663 56.2356 8.49653C56.2254 7.06643 56.9176 6.10201 58.2713 5.62616C58.9373 5.69104 59.608 5.69104 60.2739 5.62616C60.7611 5.76988 61.1984 6.04688 61.5366 6.42592C61.8747 6.80496 62.1002 7.27094 62.1875 7.7713C62.6975 9.90215 63.6861 11.8889 65.0783 13.5807C65.7221 14.3899 66.8442 14.8047 67.6967 15.4663C68.6586 16.2145 69.6205 16.0542 70.6383 15.6674C70.9178 15.5911 71.2042 15.5434 71.4933 15.5249C72.2425 15.6664 73.0115 15.6664 73.7606 15.5249C77.4326 16.1636 79.8678 18.5072 80.6032 22.1028C80.5828 23.197 80.5014 24.2887 80.5803 25.3829C79.7024 28.8538 77.5267 30.9811 74.0125 31.7114C73.0089 31.5829 71.9931 31.5829 70.9895 31.7114C68.0326 31.1338 66.0605 29.3754 64.8441 26.6603C66.8799 25.9147 67.0275 26.0267 68.3736 27.5484C69.1141 28.3855 70.2337 28.7698 71.2745 29.1973C71.5722 29.5103 71.9081 29.3373 72.2338 29.266H72.7682C73.099 29.35 73.4349 29.4823 73.7428 29.2075C74.9006 28.7164 76.061 28.2456 76.8829 27.2099C77.4433 26.5232 77.8331 25.7135 78.0204 24.8472C78.2077 23.9809 78.1872 23.0825 77.9605 22.2256C77.7339 21.3687 77.3076 20.5777 76.7165 19.9172C76.1254 19.2568 75.3862 18.7457 74.5596 18.4258L73.7555 18.1026C73.015 17.7616 72.2644 17.8329 71.5111 18.0466C69.3329 18.7591 67.7501 20.0111 67.0529 22.3445C66.7526 23.3624 65.4269 23.1385 64.61 23.5685C64.3454 23.2123 64.6202 22.7568 64.4166 22.3802Z" fill="#29B474"/>
<path d="M51.4084 35.2867C47.549 34.6505 45.1833 32.4579 44.3113 28.7087C44.4615 27.7049 44.4615 26.6844 44.3113 25.6806C44.4233 24.6627 44.8661 23.7594 45.3292 22.8662C45.5837 22.4005 45.8585 22.2504 46.3216 22.5354C47.1206 22.7899 47.3242 23.5533 47.6805 24.1869C47.6893 24.4828 47.6283 24.7766 47.5023 25.0444C46.4285 28.3219 47.7288 31.0524 50.9249 32.2331C51.1249 32.3021 51.3189 32.3872 51.5051 32.4875C51.7661 32.6529 52.0679 32.7428 52.3768 32.7473C52.6858 32.7518 52.9901 32.6707 53.2558 32.513C55.5256 31.859 56.9048 30.2711 57.8158 28.1871C58.0245 27.2099 58.0067 26.9351 57.6733 26.0292C57.3756 25.5203 57.1949 24.9452 56.8921 24.4363C55.6198 22.3166 53.6782 21.6371 51.3626 22.0137C50.1717 22.2097 49.4159 21.828 48.8383 20.8636C48.2937 20.2936 48.4006 19.8991 49.1182 19.5683C51.5433 18.4538 55.7877 18.8049 57.8235 21.1358C58.7953 22.1979 59.6438 23.3666 60.3528 24.6195C61.157 25.0368 62.0425 24.5991 62.8619 24.8536C63.0247 24.8994 62.7652 24.9884 62.8186 24.8281C62.8186 24.8154 62.7855 24.79 62.7041 24.7849C62.5412 24.7696 62.3733 24.7849 62.2613 24.6246C65.2657 24.1161 68.1153 22.9319 70.5951 21.1613C72.0481 20.1103 73.1906 20.3979 74.5953 21.8C75.4045 22.6092 75.5571 24.0291 74.9464 25.0801C74.2034 26.3524 72.8751 26.8766 71.3559 26.4593C68.0173 25.5406 64.7704 25.4872 61.6862 27.3397C61.3577 27.5077 61.0697 27.7452 60.842 28.0356C60.6144 28.3261 60.4527 28.6625 60.3681 29.0217C59.4444 32.6224 57.0957 34.7141 53.4136 35.2867C52.7515 35.1568 52.0705 35.1568 51.4084 35.2867Z" fill="#1A76BB"/>
<path d="M57.7497 45.1777C57.7497 47.6384 57.7649 49.8624 57.7497 52.089C57.7497 52.6387 58.0881 53.4351 56.9583 53.4122C55.8284 53.3893 56.261 52.5445 56.2534 52.0381C56.2076 49.5393 56.2152 47.0404 56.2534 44.5416C56.2534 44.0886 55.9201 43.3685 56.5537 43.2133C57.2382 43.0479 57.9965 42.9588 58.6098 43.7222C60.5691 46.16 62.6023 48.5341 64.6126 50.9287C64.6533 50.977 64.7347 50.9923 64.9103 51.0788C64.9103 48.7504 64.9103 46.4857 64.9103 44.2209C64.9103 43.6586 64.8136 43.1369 65.7017 43.1318C66.5898 43.1267 66.4651 43.6967 66.4651 44.2286C66.4651 46.8979 66.4651 49.5723 66.4651 52.2341C66.4651 52.6208 66.7043 53.2519 66.2106 53.3461C65.6076 53.4631 64.8925 53.6616 64.3454 52.9898C63.2792 51.6819 62.1545 50.4197 61.0653 49.127C59.9864 47.8751 58.9533 46.6231 57.7497 45.1777Z" fill="#050606"/>
<path d="M91.2017 53.3995C90.4815 53.3995 89.7614 53.4199 89.0413 53.3995C88.2295 53.3664 87.5552 53.0662 87.26 52.2417C87.1608 51.9592 86.8274 51.6641 87.1913 51.3282C87.5552 50.9923 88.2092 50.9999 88.3415 51.2238C88.9777 52.2417 89.9166 51.7887 90.7335 51.8524C91.4969 51.9109 92.2603 51.8244 93.0237 51.8753C93.7871 51.9262 94.0746 51.687 94.0822 50.8879C94.0899 50.0889 93.7387 49.9795 93.0822 49.9973C91.8557 50.0279 90.624 50.0253 89.3975 49.9973C87.7079 49.9642 87.0157 49.2008 87.031 47.4348C87.0463 45.7452 87.741 45.0174 89.3848 45.0072C90.7818 45.0072 92.1839 44.992 93.5784 45.0072C94.3901 45.0072 95.0696 45.2973 95.3902 46.1116C95.5174 46.4348 95.8711 46.7809 95.4284 47.1295C95.0925 47.3839 94.4843 47.384 94.3647 47.2185C93.5809 46.0735 92.4486 46.674 91.4765 46.5569C90.8912 46.4857 90.2907 46.5722 89.6952 46.5366C89.0133 46.4933 88.5909 46.59 88.5756 47.4577C88.5603 48.3255 88.9344 48.4349 89.6444 48.412C90.8709 48.3713 92.1025 48.3764 93.329 48.412C94.9958 48.4527 95.6625 49.2288 95.6396 51.0304C95.6167 52.6972 94.9169 53.3919 93.2349 53.4072C92.558 53.4046 91.8811 53.3995 91.2017 53.3995Z" fill="#0B0B0B"/>
<path d="M5.60969 53.3995C4.42388 53.3995 3.23553 53.4199 2.04717 53.3995C0.731588 53.369 0.0114509 52.6565 0.0114509 51.3638C-0.00381698 49.2874 -0.00381698 47.2118 0.0114509 45.137C0.0114509 43.824 0.604363 43.1878 1.92758 43.1675C4.42643 43.1293 6.92527 43.1675 9.42412 43.142C10.0374 43.142 10.2206 43.3481 10.213 43.9512C10.213 44.6052 9.88725 44.7146 9.34015 44.7146C7.09322 44.6994 4.84884 44.7375 2.60445 44.6917C1.8207 44.6765 1.46954 44.8062 1.51026 45.7096C1.59169 47.3992 1.58914 49.0991 1.51026 50.7989C1.46954 51.7302 1.81052 51.9262 2.66807 51.9033C4.8692 51.8498 7.07287 51.9033 9.28417 51.8804C9.82618 51.8804 10.241 51.8346 10.2308 52.631C10.2308 53.3817 9.88726 53.4377 9.30199 53.425C8.06528 53.3741 6.83621 53.3995 5.60969 53.3995Z" fill="#070808"/>
<path d="M77.855 47.8623C77.855 46.4653 77.855 45.0632 77.855 43.6713C77.855 43.0427 77.7023 42.399 78.7507 42.4346C79.7507 42.4677 79.3843 43.142 79.4021 43.5924C79.4428 44.7757 79.3868 45.964 79.4326 47.1549C79.4479 47.5671 79.1146 48.2466 79.738 48.3484C80.3614 48.4501 81.1528 48.6817 81.7432 47.9972C82.4608 47.1625 83.2293 46.3762 83.985 45.5772C84.2395 45.31 84.4405 44.9334 84.9037 45.0123C85.3006 45.0785 85.8426 44.7782 86.064 45.2464C86.2574 45.6587 85.7383 45.8571 85.5067 46.1192C84.7281 47.0099 83.9596 47.9158 83.1173 48.7453C82.6873 49.1677 82.8323 49.3637 83.1657 49.7123C84.0436 50.6258 84.8833 51.5775 85.7332 52.5114C85.8961 52.6895 86.176 52.8473 86.0818 53.1298C85.9571 53.5013 85.6009 53.3842 85.3184 53.3995C84.8426 53.4326 84.4405 53.3766 84.0843 52.9542C83.4608 52.2111 82.672 51.5953 82.1071 50.8141C81.5778 50.0838 80.9467 49.9591 80.1426 49.9846C79.6082 50.0024 79.3792 50.1423 79.4072 50.7098C79.4352 51.2773 79.4225 51.8956 79.4072 52.4911C79.4072 52.9313 79.5421 53.4224 78.7685 53.4224C77.9949 53.4224 77.8219 53.1247 77.8371 52.4325C77.8779 50.9083 77.855 49.384 77.855 47.8623Z" fill="#090909"/>
<path d="M96.9271 47.8496C96.9271 46.3228 96.945 44.796 96.9271 43.2693C96.9271 42.6814 97.09 42.4448 97.716 42.4346C98.342 42.4244 98.4794 42.6229 98.5074 43.2234C98.5608 45.0047 98.5914 45.0047 100.406 45.0047C101.38 45.0047 102.355 44.992 103.329 45.0047C104.709 45.0301 105.485 45.7147 105.526 47.0735C105.579 48.8929 105.526 50.7175 105.548 52.5394C105.548 53.2112 105.276 53.4072 104.635 53.4148C103.899 53.4148 103.955 52.972 103.955 52.4962C103.955 50.8447 103.927 49.1881 103.968 47.5417C103.989 46.7783 103.742 46.4831 102.95 46.5239C101.849 46.585 100.744 46.585 99.6423 46.5239C98.772 46.473 98.4285 46.7351 98.4667 47.6562C98.5328 49.2645 98.4896 50.8752 98.4819 52.4911C98.4819 52.9338 98.6219 53.4224 97.8432 53.4224C97.0646 53.4224 96.9068 53.112 96.9221 52.4275C96.95 50.9007 96.9271 49.3739 96.9271 47.8496Z" fill="#070707"/>
<path d="M72.6995 53.3995C71.8089 53.3995 70.9182 53.4199 70.0302 53.3995C68.6764 53.3639 67.9639 52.6361 67.9257 51.262C67.9079 50.6258 67.9639 49.9897 67.913 49.356C67.8545 48.6334 68.1293 48.3764 68.8494 48.3916C70.5442 48.4273 72.2415 48.3738 73.9387 48.4171C74.6131 48.4323 74.9032 48.3 74.8955 47.5366C74.8879 46.7732 74.6894 46.5009 73.8777 46.5188C72.1855 46.5798 70.4882 46.534 68.7884 46.5391C68.3023 46.5391 67.8748 46.5951 67.8901 45.8546C67.9054 45.1752 68.1598 44.9767 68.8036 44.9869C70.6689 45.0149 72.5341 44.9869 74.4019 45.0021C75.6411 45.02 76.4249 45.6943 76.4732 46.9259C76.5496 48.8293 76.491 50.7429 76.5063 52.6463C76.5063 53.2825 76.1704 53.4097 75.6157 53.4097C74.6487 53.3741 73.6741 53.3995 72.6995 53.3995Z" fill="#0E0E0E"/>
<path d="M110.185 45.0022C111.159 45.0022 112.134 44.9691 113.109 45.0022C114.266 45.0556 114.966 45.791 114.979 46.9514C115.002 48.8166 114.959 50.6818 114.999 52.5496C115.015 53.229 114.791 53.4199 114.132 53.4072C112.266 53.369 110.401 53.4072 108.533 53.3868C107.302 53.3664 106.599 52.6412 106.538 51.4249C106.391 48.3942 106.391 48.3942 109.444 48.3942C110.503 48.3942 111.564 48.3535 112.623 48.4095C113.292 48.4451 113.508 48.2339 113.47 47.5672C113.434 46.9692 113.47 46.4984 112.62 46.5213C110.885 46.5697 109.144 46.5213 107.409 46.5493C106.772 46.562 106.503 46.4221 106.513 45.7172C106.523 45.0123 106.849 44.9742 107.383 44.9894C108.317 45.0225 109.241 45.0022 110.185 45.0022Z" fill="#090A0A"/>
<path d="M33.7408 53.3995C32.812 53.3995 31.8807 53.4224 30.9417 53.3995C29.7101 53.3613 28.9874 52.6488 28.9671 51.4325C28.9399 49.9549 28.9399 48.4756 28.9671 46.9946C28.99 45.7757 29.7101 45.0429 30.9315 45.0174C32.4583 44.9869 33.9851 44.9793 35.4967 45.0174C36.657 45.0505 37.3492 45.7935 37.3975 46.9335C37.5298 50.0049 37.5298 50.0049 34.4228 50.0049C33.3668 50.0049 32.3057 50.0711 31.2547 49.9846C30.4124 49.9159 30.5244 50.407 30.5117 50.9159C30.4989 51.4249 30.4633 51.9058 31.2751 51.8804C32.9215 51.8269 34.5831 51.8422 36.2219 51.8804C36.7054 51.8804 37.4255 51.5088 37.4382 52.5929C37.4535 53.7329 36.7028 53.3715 36.1532 53.397C35.3491 53.425 34.545 53.3995 33.7408 53.3995Z" fill="#090909"/>
<path d="M16.4092 53.3995C15.5185 53.3995 14.6279 53.3995 13.7424 53.3995C12.3632 53.3741 11.6812 52.687 11.615 51.3002C11.4802 48.4044 11.4802 48.4044 14.3964 48.4044C15.4956 48.4044 16.5975 48.3789 17.7044 48.4044C18.3049 48.4247 18.6332 48.3382 18.6027 47.6028C18.5747 46.9081 18.5009 46.4933 17.6433 46.5213C15.9511 46.5748 14.2589 46.5213 12.5667 46.5417C12.012 46.5417 11.5972 46.5417 11.5998 45.7783C11.6023 45.0149 11.9866 44.9894 12.5591 44.9945C14.376 45.0149 16.1954 44.9945 18.0149 45.0072C19.3941 45.0276 20.0964 45.7477 20.1066 47.1269C20.1218 48.9082 20.0837 50.6895 20.1244 52.458C20.1396 53.1552 19.9564 53.458 19.2057 53.4122C18.2719 53.3563 17.338 53.3995 16.4092 53.3995Z" fill="#090909"/>
<path d="M43.6268 53.3995C42.7388 53.3995 41.8456 53.3995 40.9626 53.3995C39.6368 53.3715 38.8912 52.6997 38.8556 51.4172C38.8149 49.9388 38.8149 48.4553 38.8556 46.9743C38.8912 45.7376 39.619 45.0378 40.8455 45.0123C42.3265 44.9818 43.8084 44.9818 45.291 45.0123C46.5964 45.0403 47.286 45.7757 47.3268 47.0684C47.4082 50.0024 47.4082 50.0024 44.4564 50.0024C43.3571 50.0024 42.2527 50.0558 41.1483 49.9846C40.329 49.9312 40.418 50.407 40.4104 50.9287C40.4028 51.4503 40.4104 51.9007 41.1738 51.8778C42.9551 51.8269 44.7363 51.8778 46.5176 51.8524C47.0672 51.8524 47.37 51.916 47.342 52.5903C47.3166 53.173 47.1766 53.4377 46.5481 53.4122C45.576 53.3741 44.6065 53.3995 43.6268 53.3995Z" fill="#0A0A0A"/>
<path d="M48.8205 46.6918C48.8917 45.5111 49.5839 45.0174 50.701 45.0022C51.8868 44.9894 53.0751 45.02 54.2635 45.0022C54.9633 44.9869 55.2483 45.2566 55.2457 45.9717C55.2457 46.7911 54.6732 46.5035 54.2737 46.5519C52.9555 46.7147 51.5967 46.2312 50.304 46.8063C50.1004 48.9286 50.4185 51.0661 50.1335 53.1858C49.6958 53.5344 49.2658 53.5955 48.8612 53.1527C48.6651 51.0041 48.6515 48.8427 48.8205 46.6918Z" fill="#161516"/>
<path d="M21.5291 49.7098C21.5291 48.8192 21.5011 47.9285 21.5291 47.043C21.5825 45.7249 22.2925 45.0327 23.5877 45.0073C24.771 44.9818 25.9568 45.0327 27.1502 44.9894C27.7838 44.9665 28.051 45.1116 28.0434 45.819C28.0358 46.5264 27.7355 46.5646 27.1935 46.5493C26.1374 46.5213 25.0763 46.5875 24.0203 46.5264C23.2773 46.4832 23.0813 46.7554 23.1042 47.4628C23.15 48.9896 23.1297 50.5164 23.1042 52.0432C23.1042 52.6743 23.3587 53.4886 22.2034 53.4173C21.0481 53.3461 21.6003 52.5114 21.5443 52.0025C21.4981 51.2391 21.4931 50.4737 21.5291 49.7098Z" fill="#0D0E0E"/>
<path d="M50.1309 53.1756C50.2073 51.0508 49.8968 48.9133 50.3014 46.7961C50.2302 48.9235 50.5482 51.0584 50.1309 53.1756Z" fill="#1A1B1B"/>
<path d="M48.8204 46.6918C48.8204 48.8412 48.8289 50.9914 48.8459 53.1425C48.6364 50.9978 48.6279 48.8381 48.8204 46.6918Z" fill="#1A1B1B"/>
<path d="M80.5828 25.4007C80.2569 24.3304 80.2649 23.1862 80.6057 22.1206C80.8552 23.2007 80.8473 24.3242 80.5828 25.4007Z" fill="#1AAE69"/>
<path d="M47.1207 11.4636C47.3879 10.8834 47.9044 11.2091 48.2861 11.1939C49.0637 11.1765 49.8417 11.1986 50.617 11.26C50.617 11.26 50.645 11.3313 50.6374 11.3618C50.6212 11.4 50.5988 11.4352 50.5712 11.4661L47.1207 11.4636Z" fill="#1C9FDA"/>
<path d="M70.9921 31.7191C71.9734 31.3934 73.0337 31.3934 74.0151 31.7191C73.0142 31.8845 71.993 31.8845 70.9921 31.7191Z" fill="#18AD67"/>
<path d="M44.3037 25.6806C44.647 26.6608 44.647 27.7286 44.3037 28.7087C44.1345 27.7065 44.1345 26.6829 44.3037 25.6806Z" fill="#126BB4"/>
<path d="M62.2613 24.6194L62.755 24.6856V24.8281C61.9356 24.8281 61.1137 24.8281 60.2918 24.8281C60.2754 24.7959 60.2692 24.7596 60.274 24.7238C60.2917 24.6859 60.3149 24.6507 60.3427 24.6194H62.2613Z" fill="#2171B7"/>
<path d="M33.3464 12.4051C33.3428 12.4469 33.3334 12.488 33.3184 12.5273C33.2749 12.5809 33.2273 12.6311 33.1759 12.6774C33.0169 11.936 33.0169 11.1693 33.1759 10.4279C33.209 10.4406 33.2574 10.4432 33.2676 10.4635C33.2989 10.5401 33.3261 10.6182 33.349 10.6977C33.3439 11.2677 33.3439 11.8351 33.3464 12.4051Z" fill="#009F94"/>
<path d="M71.5137 18.0568C71.8451 17.8263 72.2414 17.7074 72.645 17.7174C73.0486 17.7275 73.4385 17.866 73.7581 18.1128L71.5137 18.0568Z" fill="#16AC66"/>
<path d="M60.2765 5.63637C59.9657 5.792 59.6228 5.87303 59.2752 5.87303C58.9276 5.87303 58.5847 5.792 58.2739 5.63637C58.9162 5.37674 59.6342 5.37674 60.2765 5.63637Z" fill="#19AE68"/>
<path d="M73.7631 15.5427C73.4077 15.7067 73.0209 15.7917 72.6295 15.7917C72.238 15.7917 71.8513 15.7067 71.4958 15.5427H73.7631Z" fill="#12AC65"/>
<path d="M47.0239 13.1965L46.3165 12.2346C47.8306 11.6137 46.9374 12.7665 47.0239 13.1965Z" fill="#009D92"/>
<path d="M30.8298 10.4229C30.9932 10.7771 31.0778 11.1626 31.0778 11.5527C31.0778 11.9428 30.9932 12.3283 30.8298 12.6825V10.4229Z" fill="#009C92"/>
<path d="M51.4084 35.2867C51.7168 35.1273 52.0588 35.0442 52.4059 35.0442C52.753 35.0442 53.095 35.1273 53.4034 35.2867H51.4084Z" fill="#0E67B2"/>
<path d="M35.9191 10.6799C36.0727 10.9432 36.1549 11.242 36.1576 11.5468C36.1603 11.8517 36.0833 12.1519 35.9343 12.4179C35.7919 11.8479 35.7867 11.2523 35.9191 10.6799Z" fill="#1EA0DB"/>
<path d="M73.7454 29.2177C73.4476 29.6782 73.1143 29.5408 72.7708 29.2762L73.7454 29.2177Z" fill="#17AC67"/>
<path d="M72.2364 29.2737C71.8954 29.5281 71.562 29.6884 71.277 29.205L72.2364 29.2737Z" fill="#18AD67"/>
<path d="M38.1813 14.4409C38.352 14.2913 38.5713 14.2088 38.7983 14.2088C39.0254 14.2088 39.2447 14.2913 39.4154 14.4409H38.1813Z" fill="#189EDA"/>
<path d="M64.4166 22.3802C64.7576 22.7339 64.5642 23.1767 64.6126 23.5787C64.0884 23.2555 64.4548 22.7873 64.4166 22.3802Z" fill="#10AA62"/>
<path d="M57.9965 28.1973C57.9863 27.4458 57.977 26.6951 57.9685 25.9453C58.5207 26.645 58.195 27.4364 58.2052 28.1947C58.2052 28.2125 58.1415 28.2456 58.1085 28.2456C58.0686 28.2361 58.0308 28.2197 57.9965 28.1973Z" fill="#0F68B2"/>
<path d="M51.4109 32.7471H53.4009C53.1192 32.9747 52.768 33.0989 52.4059 33.0989C52.0438 33.0989 51.6926 32.9747 51.4109 32.7471Z" fill="#116BB5"/>
<path d="M57.0524 52.771C56.6147 52.5165 56.7394 52.1984 56.7394 51.9312C56.7275 49.4765 56.7275 47.0167 56.7394 44.5517C56.7394 44.198 56.5689 43.74 57.0346 43.5339C57.5002 43.3278 57.8489 43.6458 58.1262 43.9715C59.7752 45.8902 61.4343 47.7885 63.0323 49.753C63.4317 50.2414 63.8564 50.7086 64.3046 51.1526C64.5591 51.407 64.6202 52.0457 65.0426 51.916C65.5897 51.7353 65.3632 51.1119 65.3683 50.6767C65.3861 48.5596 65.3683 46.4399 65.381 44.3151C65.381 44.0428 65.2792 43.5873 65.6711 43.5975C66.1343 43.6102 65.9841 44.0148 65.9765 44.3609C65.918 46.8572 65.923 49.3535 65.8798 51.8473C65.8798 52.1704 66.3556 52.6107 65.7551 52.8091C65.5399 52.8976 65.3013 52.9116 65.0772 52.8489C64.8531 52.7862 64.6564 52.6504 64.5184 52.4631C63.1926 50.8269 61.8211 49.2288 60.447 47.6282C59.6819 46.7308 58.8998 45.847 58.1008 44.9767C57.9405 44.8011 57.6631 44.5721 57.4901 44.6077C57.1109 44.6866 57.2356 45.0836 57.2356 45.3711C57.2356 47.4068 57.2356 49.4426 57.2356 51.4783C57.2331 51.8905 57.3501 52.3257 57.0524 52.771Z" fill="#161616"/>
<path d="M91.2856 45.5136C92.049 45.5136 92.8124 45.5416 93.5758 45.5136C93.8301 45.5027 94.0829 45.5567 94.3104 45.6707C94.538 45.7847 94.7327 45.9549 94.8761 46.1651C95.0085 46.3279 95.1789 46.5289 94.9219 46.6893C94.8469 46.7128 94.7675 46.7193 94.6896 46.7083C94.6116 46.6973 94.5372 46.6691 94.4715 46.6256C92.7208 45.4246 90.7894 46.1727 88.9395 46.1422C88.4 46.1422 87.9623 46.6511 88.1761 47.3432C88.3618 47.9692 88.1201 48.87 89.2753 48.8395C90.5884 48.7937 91.904 48.8115 93.2196 48.8395C94.6624 48.8649 95.1586 49.4502 95.1484 51.0406C95.1484 52.4478 94.6827 52.8957 93.217 52.9033C91.904 52.9033 90.5901 52.9033 89.2753 52.9033C88.9395 52.9033 88.5654 52.9873 88.2982 52.7328C88.031 52.4784 87.3974 52.2493 87.7155 51.7913C87.9954 51.3892 88.2422 51.9745 88.512 52.0992C88.7664 52.2468 89.0474 52.3428 89.339 52.3817C90.6546 52.4096 91.9676 52.4173 93.2806 52.3817C93.9804 52.3664 94.6318 52.0483 94.5199 51.2671C94.4181 50.5393 94.5911 49.4655 93.1992 49.5749C91.928 49.6462 90.654 49.6513 89.3822 49.5902C87.9776 49.5571 87.4915 48.9464 87.517 47.328C87.5348 46.0073 88.0132 45.5467 89.3848 45.5289C90.0158 45.506 90.6495 45.5136 91.2856 45.5136Z" fill="#161616"/>
<path d="M9.49031 52.8651H5.8769C4.23305 52.8651 2.58666 52.8651 0.94281 52.8651C0.885908 52.8658 0.829451 52.8552 0.776687 52.8339C0.723922 52.8125 0.675903 52.781 0.635429 52.741C0.594955 52.701 0.562819 52.6533 0.54089 52.6008C0.51896 52.5483 0.50768 52.492 0.507684 52.4351C0.507684 49.9846 0.53313 47.5315 0.507684 45.081C0.49496 43.9792 1.17184 43.5059 2.08283 43.4779C4.37301 43.4041 6.6632 43.4499 8.95339 43.455C9.23839 43.455 9.62518 43.4295 9.60228 43.8494C9.57937 44.2693 9.19259 44.2057 8.90759 44.2057C6.70646 44.2057 4.50533 44.2387 2.30421 44.2057C1.03188 44.1802 0.777418 44.7909 1.24055 46.9004C1.41358 47.691 1.41358 48.5095 1.24055 49.3001C0.517864 52.6666 1.54844 52.9847 6.1619 51.6081C6.4536 51.5277 6.76248 51.5348 7.0502 51.6284C7.33791 51.7221 7.59179 51.8981 7.78031 52.1348C8.24853 52.7124 8.96357 51.8956 9.49031 52.8651Z" fill="#161516"/>
<path d="M78.4504 52.7074V43.1089C79.0968 43.2769 78.8525 43.7426 78.8627 44.0581C78.8983 45.076 78.8474 46.0938 78.8856 47.1117C78.9085 47.6664 78.5904 48.4934 79.3029 48.6868C80.1579 48.9184 81.1656 49.1652 81.9417 48.4095C82.6033 47.7631 83.3209 47.1677 83.8273 46.361C84.1352 45.8724 84.5347 45.389 85.3668 45.5976C84.7459 46.5671 83.8985 47.2338 83.1453 47.9769C82.8231 48.2942 82.637 48.7246 82.6266 49.1768C82.6161 49.629 82.7821 50.0675 83.0893 50.3994C83.7942 51.1399 84.7688 51.687 85.1251 52.8779C84.3235 52.8473 84.0818 52.2824 83.6975 51.86C82.6797 50.7556 81.9392 49.267 79.9543 49.5698C79.6414 49.6225 79.3589 49.7887 79.1608 50.0366C78.9627 50.2844 78.8629 50.5966 78.8805 50.9134C78.8932 51.5114 78.9594 52.1348 78.4504 52.7074Z" fill="#161616"/>
<path d="M97.5353 52.7099V43.0402C98.1257 43.3481 97.9807 43.8163 97.9476 44.1675C97.8432 45.2592 98.3471 45.5772 99.3675 45.5289C100.675 45.4653 101.991 45.5518 103.302 45.5009C104.513 45.4551 105.024 46.1269 105.065 47.1829C105.126 48.8293 105.085 50.491 105.08 52.1323C105.08 52.4224 105.108 52.8091 104.704 52.8091C104.121 52.8091 104.431 52.0152 104.268 51.8473C103.805 51.374 103.505 50.7658 103.716 50.1347C104.917 46.4526 104.388 45.7554 102.149 46.0887C101.538 46.1841 100.917 46.1841 100.306 46.0887C98.1257 45.7299 97.599 46.7885 98.1664 49.1601C98.3074 49.8471 98.2509 50.56 98.0036 51.2162C97.8432 51.6895 98.2046 52.2671 97.5353 52.7099Z" fill="#161616"/>
<path d="M68.6077 45.5391C70.73 45.5391 72.8573 45.4704 74.9694 45.5772C75.7048 45.6154 76.0254 46.4043 76.0432 47.104C76.0814 48.753 76.0432 50.4121 76.0636 52.0559C76.0636 52.6463 75.8371 52.888 75.2391 52.883C73.4578 52.8651 71.6766 52.8829 69.8953 52.8702C68.9996 52.8575 68.511 52.3409 68.4194 51.4579C68.1446 48.809 68.1471 48.809 70.8343 48.809C71.9361 48.809 73.0354 48.781 74.1423 48.809C74.8854 48.8344 75.3638 48.7224 75.3078 47.7911C75.2544 46.9386 75.4427 46.0098 74.1449 45.9971C72.5367 45.9971 70.9284 45.9971 69.3228 45.9971C69.0786 45.9827 68.8355 45.9529 68.595 45.9081C68.6052 45.7961 68.6077 45.6689 68.6077 45.5391Z" fill="#161616"/>
<path d="M107.029 45.5314C109.289 45.5314 111.304 45.4907 113.317 45.5518C114.109 45.5772 114.467 46.1854 114.47 46.9641C114.47 48.6563 114.452 50.3485 114.47 52.0381C114.47 52.7277 114.162 52.9033 113.544 52.8956C111.936 52.8727 110.327 52.8956 108.722 52.8956C107.597 52.8956 107.037 52.4631 107.063 51.2213C107.111 48.8293 107.062 48.8267 109.503 48.8267C110.561 48.8267 111.62 48.7886 112.673 48.8267C113.521 48.8675 114.037 48.7479 113.976 47.6893C113.923 46.735 113.806 45.9996 112.62 46.0124C111.18 46.031 109.738 46.031 108.294 46.0124C107.968 46.0073 107.564 46.1701 107.029 45.5314Z" fill="#171717"/>
<path d="M36.9319 52.8651C34.7002 52.8651 32.6848 52.9058 30.672 52.8422C29.929 52.8193 29.4735 52.3587 29.5015 51.4885C29.5498 49.9617 29.5473 48.4349 29.5015 46.9081C29.4709 45.8902 30.0587 45.5391 30.9087 45.5162C32.4355 45.4729 33.9622 45.478 35.489 45.5162C36.428 45.5365 36.9166 45.9742 36.9166 47.0277C36.9166 49.5723 36.9573 49.5723 34.3719 49.5723C33.3134 49.5723 32.2548 49.5952 31.1962 49.5723C30.4761 49.5494 29.957 49.6156 30.0129 50.5622C30.0664 51.4427 29.9875 52.3435 31.2267 52.3689C32.7535 52.3944 34.2803 52.3689 35.8071 52.3842C36.1023 52.3918 36.4636 52.2493 36.9319 52.8651Z" fill="#171717"/>
<path d="M11.9459 45.5187C14.1979 45.5187 16.2718 45.478 18.3075 45.5416C18.4808 45.5414 18.6522 45.5765 18.8114 45.6448C18.9706 45.7132 19.1142 45.8133 19.2333 45.9391C19.3525 46.0649 19.4446 46.2137 19.5042 46.3764C19.5638 46.5391 19.5895 46.7122 19.5798 46.8852C19.6155 48.6181 19.5798 50.351 19.5976 52.0839C19.5976 52.6921 19.3432 52.8982 18.7579 52.8931C16.9767 52.8753 15.1954 52.8931 13.4294 52.8931C12.5133 52.8931 12.1571 52.2621 11.9993 51.5394C11.4904 49.3026 11.895 48.8217 14.1801 48.8217C15.4066 48.8217 16.6331 48.7937 17.8571 48.8217C18.6917 48.8471 19.1294 48.5876 19.0989 47.674C19.0684 46.7605 18.9895 46.0277 17.8647 46.0175C16.2565 46.0175 14.6508 46.0175 13.0299 46.0048C12.7373 46.0098 12.3708 46.16 11.9459 45.5187Z" fill="#161616"/>
<path d="M46.8509 52.8778C44.5607 52.8778 42.4944 52.9262 40.4307 52.8575C39.563 52.827 39.2373 52.0636 39.2042 51.318C39.1406 49.921 39.1279 48.5189 39.2042 47.1218C39.2576 46.1345 39.7411 45.4653 40.8989 45.5034C42.2985 45.5467 43.6981 45.534 45.0951 45.5034C46.2529 45.4805 46.8331 45.9818 46.8153 47.1676C46.7695 50.0991 47.1155 49.5215 44.5251 49.5749C43.4258 49.5978 42.3214 49.6182 41.217 49.5749C40.3646 49.5342 39.8556 49.6589 39.9142 50.7149C39.9701 51.6793 40.0974 52.4045 41.2832 52.3893C42.7235 52.3706 44.1654 52.3706 45.6091 52.3893C45.9526 52.3944 46.3649 52.2239 46.8509 52.8778Z" fill="#171717"/>
<path d="M27.3029 46.02C26.3028 46.02 25.3002 46.0633 24.3027 46.02C23.122 45.9564 22.5876 46.4144 22.636 47.6359C22.692 49.1118 22.6563 50.5902 22.636 52.0687C22.636 52.374 22.7403 52.8321 22.2161 52.8041C21.809 52.7761 21.8878 52.374 21.8853 52.0941C21.8853 50.4477 21.8675 48.8013 21.8853 47.1549C21.8853 46.4144 22.2416 45.7706 22.9871 45.6409C24.4172 45.3864 25.86 45.5136 27.2952 45.5671L27.3029 46.02Z" fill="#161616"/>
<path d="M72.2287 50.005C72.7376 50.005 73.2466 50.0253 73.7555 50.005C74.4298 49.9719 74.9159 49.9413 74.9133 50.9388C74.9108 51.9363 74.4044 51.8829 73.7453 51.8676C72.6028 51.8447 71.4551 51.8269 70.3228 51.8676C69.5034 51.9007 69.4983 51.4274 69.4576 50.8218C69.4092 50.1144 69.712 49.9515 70.3329 49.9948C70.9538 50.038 71.5951 50.005 72.2287 50.005Z" fill="#FCFCFC"/>
<path d="M110.826 50.0049C111.335 50.0049 111.844 50.0253 112.353 50.0049C113.032 49.9668 113.501 49.9439 113.503 50.9388C113.506 51.9338 113.014 51.8829 112.345 51.8676C111.246 51.8447 110.139 51.804 109.037 51.8804C108.185 51.9389 108.098 51.5648 108.073 50.8472C108.042 50.0431 108.393 49.949 109.045 49.9999C109.638 50.0406 110.233 50.0049 110.826 50.0049Z" fill="#FCFCFC"/>
<path d="M33.0792 48.3942C32.6161 48.3942 32.1529 48.3942 31.6898 48.3942C31.1071 48.3942 30.476 48.6283 30.4837 47.5392C30.4837 46.4984 30.9926 46.5213 31.7254 46.5366C32.8604 46.5722 33.9978 46.5773 35.1327 46.5366C36.0539 46.5035 35.8147 47.1422 35.8783 47.6537C35.9521 48.2822 35.6976 48.4553 35.0971 48.4171C34.4279 48.3535 33.7535 48.3942 33.0792 48.3942Z" fill="#FCFCFC"/>
<path d="M18.5747 50.094C18.5747 50.5164 18.5747 50.9414 18.5747 51.3663C18.5747 51.6564 18.5034 51.8753 18.165 51.8524C16.5059 51.7226 14.8188 52.1628 13.18 51.6132C13.0426 49.9719 13.0426 49.9439 14.6916 49.9795C15.9842 50.0024 17.2871 49.8115 18.5747 50.094Z" fill="#FCFCFC"/>
<path d="M18.5747 50.094C17.0148 50.0635 15.455 50.0151 13.8951 50.0126C12.5184 50.0126 13.5032 51.1144 13.1775 51.6106C12.7296 49.9897 12.8365 49.781 14.3964 49.8497C15.7883 49.9108 17.2133 49.5291 18.5747 50.094Z" fill="#1B1C1C"/>
<path d="M42.9957 48.3942C42.4868 48.3942 41.9779 48.3942 41.4689 48.3942C40.8735 48.4069 40.3493 48.5112 40.3747 47.5468C40.3976 46.6816 40.6801 46.4832 41.4715 46.529C42.6064 46.59 43.7438 46.59 44.8788 46.529C45.7745 46.4806 45.7567 46.987 45.7999 47.6359C45.8483 48.412 45.4361 48.4247 44.8788 48.3993C44.2579 48.3738 43.6268 48.3942 42.9957 48.3942Z" fill="#FDFDFC"/>
</svg>
