<svg width="23" height="22" viewBox="0 0 23 22" fill="none" xmlns="http://www.w3.org/2000/svg">
<path d="M14.2472 17.7643C11.2087 14.6977 8.20574 11.6732 5.21344 8.65221C6.29202 6.97583 9.13683 6.84417 10.7325 8.40469C12.0136 9.65803 13.2806 10.9307 14.5191 12.2279C14.8825 12.6023 15.1648 13.0461 15.3488 13.532C15.5328 14.0179 15.6146 14.5357 15.5891 15.0539C15.5637 15.5721 15.4316 16.0797 15.2008 16.5457C14.9701 17.0117 14.6456 17.4264 14.2472 17.7643Z" fill="black"/>
<path d="M14.7909 11.8751L10.9688 8.28885L17.7885 2.12225L21.0935 5.2977L14.7909 11.8751Z" fill="black"/>
<path d="M8.96623 12.8054L9.8298 13.8393C6.56919 16.4355 3.91984 19.7953 0.268308 22L0 21.7893C0.369595 21.1978 0.630795 20.4974 1.123 20.034C3.66574 17.6274 6.26179 15.2822 8.96623 12.8054Z" fill="black"/>
<path d="M17.4563 0C17.6425 0.120564 17.8206 0.253089 17.9893 0.396714C19.5885 2.00112 21.1877 3.5985 22.755 5.23274C22.9327 5.40828 22.8687 5.81728 22.9184 6.11043C22.6164 6.0367 22.2183 6.05953 22.03 5.87346C20.4112 4.29363 18.8316 2.67694 17.2484 1.05147C17.0893 0.862138 17.0064 0.621534 17.0156 0.375651C17.0227 0.252775 17.291 0.136919 17.4563 0Z" fill="black"/>
</svg>
